# xmcd CD database file
# Copyright (C) 1993-1998 Ti Kan
#
# Track frame offsets:
#	150
#	12750
#	29325
#	45562
#	56737
#	83550
#	96600
#	118050
#	137062
#	161775
#	171337
#
# Disc length: 2558 seconds
#
# Revision: 1
# Processed by: cddbd v1.4b41PL1 Copyright (c) Steve Scherf et al.
# Submitted via: CDValet v3.31 - Copyright (c) 1997 Greg Leichner
#
DISCID=9209fc0b
DTITLE=Barrence Whitfield and the Savages - Ow! Ow! Ow!
DYEAR=1900
DGENRE=
TTITLE0=Rockin' the Mule
TTITLE1=Madhouse
TTITLE2=Apology Line
TTITLE3=I Don't Dig Your Noise
TTITLE4=Living Proof
TTITLE5=Stop Twistin' My Arm
TTITLE6=Girl From Outer Space
TTITLE7=Runnin' and Hidin'
TTITLE8=The Blues Is A Thief
TTITLE9=Ain't She Wild
TTITLE10=Chillin'
EXTD=1988, Rounder Records Corp.\nProduced by Milton Reder and 
EXTD=Mike Costello\n\nLorne Entress: drums, vocals\nBruce Katz:
EXTD=piano, organ\nMilton Reder: guitars, vocals\nRichie Rober
EXTD=tson: bass, vocals\nDavid Sholl: saxophone\nBarrence Whitf
EXTD=ield: vocals\nMike Costello: harmonica
EXTT0=
EXTT1=
EXTT2=
EXTT3=
EXTT4=
EXTT5=
EXTT6=
EXTT7=
EXTT8=
EXTT9=
EXTT10=
PLAYORDER=
